<svg width="65" height="65" viewBox="0 0 65 65" fill="none" xmlns="http://www.w3.org/2000/svg">
<g clip-path="url(#clip0_12132_7003)">
<mask id="mask0_12132_7003" style="mask-type:luminance" maskUnits="userSpaceOnUse" x="0" y="0" width="65" height="65">
<path d="M65 0H0V65H65V0Z" fill="white"/>
</mask>
<g mask="url(#mask0_12132_7003)">
<path d="M36.3532 44.0802C36.1708 44.0801 35.9917 44.0319 35.8338 43.9406C35.6759 43.8494 35.5448 43.7182 35.4536 43.5602L32.8016 38.9686L30.2016 43.4614C30.0364 43.7458 29.7652 43.9531 29.4475 44.0379C29.1297 44.1227 28.7913 44.0781 28.5064 43.9138C28.2275 43.7434 28.0266 43.4704 27.9468 43.1534C27.8671 42.8364 27.9149 42.5008 28.08 42.2186L31.3924 36.4986L30.7112 35.3598L27.3468 37.2994L26.8268 36.4206C26.2548 35.4638 21.2472 26.9566 22.2872 22.9578C22.3727 22.5639 22.5388 22.1919 22.7751 21.8653C23.0114 21.5386 23.3126 21.2644 23.66 21.0598C23.818 20.9682 23.9973 20.9198 24.18 20.9194C24.3632 20.9187 24.5434 20.9664 24.7023 21.0577C24.8612 21.1491 24.9932 21.2807 25.0848 21.4394L32.5676 34.403L34.554 30.9606C33.9456 29.9206 33.8052 28.3606 34.2732 27.669L39.338 21.1326C39.3891 21.0632 39.4638 21.0149 39.5481 20.9967C39.6324 20.9785 39.7204 20.9917 39.7956 21.0338C39.8351 21.0551 39.8701 21.0839 39.8983 21.1188C39.9266 21.1537 39.9476 21.1938 39.9602 21.2369C39.9728 21.28 39.9767 21.3251 39.9716 21.3697C39.9666 21.4143 39.9527 21.4575 39.9308 21.4966L36.4624 27.253C36.4624 27.253 36.4624 27.253 36.4624 27.2842H36.4988L40.248 21.6786C40.297 21.6126 40.3683 21.5666 40.4487 21.5494C40.5291 21.5322 40.6131 21.5448 40.6848 21.585C40.755 21.6265 40.8072 21.6926 40.8312 21.7705C40.8553 21.8484 40.8494 21.9324 40.8148 22.0062L37.6896 27.9498C37.6858 27.9551 37.6837 27.9615 37.6837 27.968C37.6837 27.9746 37.6858 27.9809 37.6896 27.9862H37.7312L41.2984 22.2662C41.3458 22.1984 41.4165 22.1504 41.497 22.1312C41.5775 22.1121 41.6623 22.1231 41.7352 22.1622C41.8067 22.2038 41.8601 22.2705 41.8851 22.3493C41.9101 22.4282 41.9049 22.5135 41.8704 22.5886L38.9116 28.6466C38.9116 28.6466 38.9116 28.6778 38.9116 28.6882L39.1144 28.8494L38.948 28.6934L42.198 22.8226C42.2456 22.7448 42.3213 22.6884 42.4095 22.6652C42.4977 22.6419 42.5914 22.6536 42.6712 22.6978C42.7491 22.7426 42.8064 22.8161 42.8307 22.9027C42.8551 22.9892 42.8444 23.0818 42.8012 23.1606L39.6812 30.789C39.3224 31.5326 37.908 32.2034 36.7068 32.2034L34.0028 36.8834L37.258 42.515C37.3931 42.7553 37.4303 43.0384 37.362 43.3054C37.3023 43.5271 37.171 43.7227 36.9886 43.8619C36.8061 44.0011 36.5827 44.076 36.3532 44.075V44.0802Z" fill="#C1C1C1"/>
<path d="M32.5 58.5C27.3577 58.5 22.3309 56.9751 18.0552 54.1182C13.7795 51.2613 10.447 47.2006 8.47914 42.4498C6.51126 37.6989 5.99638 32.4712 6.99959 27.4277C8.00281 22.3842 10.4791 17.7514 14.1152 14.1152C17.7514 10.4791 22.3842 8.00281 27.4277 6.99959C32.4712 5.99638 37.6989 6.51126 42.4498 8.47914C47.2006 10.447 51.2613 13.7795 54.1182 18.0552C56.9751 22.3309 58.5 27.3577 58.5 32.5C58.4917 39.3931 55.7498 46.0015 50.8757 50.8757C46.0015 55.7498 39.3931 58.4917 32.5 58.5ZM32.5 11.7C28.3862 11.7 24.3647 12.9199 20.9441 15.2054C17.5236 17.491 14.8576 20.7395 13.2833 24.5402C11.709 28.3409 11.2971 32.5231 12.0997 36.5579C12.9022 40.5927 14.8833 44.2989 17.7922 47.2078C20.7011 50.1168 24.4073 52.0978 28.4421 52.9003C32.4769 53.7029 36.6591 53.291 40.4598 51.7167C44.2605 50.1424 47.509 47.4764 49.7946 44.0559C52.0801 40.6353 53.3 36.6139 53.3 32.5C53.3 26.9835 51.1086 21.6929 47.2078 17.7922C43.3071 13.8914 38.0165 11.7 32.5 11.7Z" fill="white"/>
<path d="M32.5001 50.3049C28.9787 50.3049 25.5363 49.2607 22.6083 47.3043C19.6803 45.3479 17.3982 42.5671 16.0506 39.3137C14.703 36.0603 14.3504 32.4804 15.0374 29.0266C15.7244 25.5728 17.4202 22.4003 19.9102 19.9102C22.4003 17.4202 25.5728 15.7244 29.0266 15.0374C32.4804 14.3504 36.0603 14.703 39.3137 16.0506C42.5671 17.3982 45.3479 19.6803 47.3043 22.6083C49.2607 25.5363 50.3049 28.9787 50.3049 32.5001C50.2994 37.2206 48.4218 41.7461 45.0839 45.0839C41.7461 48.4218 37.2206 50.2994 32.5001 50.3049ZM32.5001 15.7353C29.1844 15.7353 25.9431 16.7186 23.1861 18.5607C20.4291 20.4028 18.2804 23.0211 17.0115 26.0845C15.7426 29.1479 15.4106 32.5187 16.0575 35.7708C16.7043 39.0228 18.301 42.01 20.6456 44.3546C22.9902 46.6992 25.9774 48.2959 29.2295 48.9428C32.4815 49.5897 35.8524 49.2577 38.9157 47.9888C41.9791 46.7199 44.5974 44.5711 46.4395 41.8141C48.2817 39.0572 49.2649 35.8159 49.2649 32.5001C49.2608 28.0551 47.4932 23.7933 44.3501 20.6502C41.2069 17.5071 36.9452 15.7395 32.5001 15.7353Z" fill="white"/>
</g>
</g>
<defs>
<clipPath id="clip0_12132_7003">
<rect width="65" height="65" fill="white"/>
</clipPath>
</defs>
</svg>
