<svg width="34" height="37" viewBox="0 0 34 37" fill="none" xmlns="http://www.w3.org/2000/svg">
<path d="M11.1101 36.2783C10.8584 36.5849 10.5537 36.8613 10.2561 36.8613C9.95851 36.8613 9.72145 36.5926 9.72145 36.2783V27.854C9.72145 27.6547 9.28639 27.4775 9.28639 27.4775H6.99537C6.99537 27.4751 6.99537 27.4727 6.99537 27.4702H3.98511V24.4702H9.99538V24.5259L10.4173 24.6987L9.99538 25.7344V25.7373C10.3824 24.7874 10.4156 24.7069 10.4187 24.7002H10.4216C10.423 24.7008 10.4246 24.7025 10.426 24.7031C10.429 24.7044 10.433 24.7047 10.4363 24.7061C10.443 24.7089 10.4504 24.713 10.4583 24.7163C10.474 24.723 10.4924 24.7309 10.5125 24.7397C10.5526 24.7574 10.6034 24.7796 10.6604 24.8071C10.7675 24.8589 10.9316 24.9442 11.1145 25.0605C11.2758 25.1632 11.5752 25.3677 11.8675 25.6875C12.1183 25.9621 12.7215 26.71 12.7215 27.854V29.6543L15.7859 25.9717C16.4103 25.073 17.4481 24.4708 18.6409 24.4702H29.4105V27.4702H18.6424C18.4593 27.4703 18.2912 27.5781 18.2073 27.7544L11.1101 36.2783ZM30.2864 23.4917V5.6001L30.2791 4.89404C30.273 4.33476 29.8966 3.98204 29.5335 3.90234L29.3797 3.88477H4.01588C3.6144 3.88495 3.12353 4.2549 3.11646 4.89404L3.10914 5.6001V23.4917C3.10932 24.1013 3.57901 24.4699 3.98511 24.4702V27.4702C1.84878 27.4699 0.109322 25.6838 0.109131 23.4917V4.86328H0.116455C0.139457 2.671 1.87938 0.88494 4.01588 0.884766H19.4978V0.861328H21.0242V0.884766H29.3797C31.5163 0.884855 33.2562 2.67085 33.2791 4.86328H33.2864V23.4917C33.2864 25.684 31.5469 27.47 29.4105 27.4702V24.4702C29.7661 24.47 30.1706 24.1878 30.2659 23.7085L30.2864 23.4917Z" fill="black"/>
</svg>
