<svg width="33" height="37" viewBox="0 0 33 37" fill="none" xmlns="http://www.w3.org/2000/svg">
<path fill-rule="evenodd" clip-rule="evenodd" d="M30.054 13.1464H20.9328C20.9328 13.1464 20.7833 13.1464 20.7192 13.125C20.2279 12.9966 19.9075 12.5043 20.0356 11.9907L22.0222 3.9433C22.364 2.55213 21.3387 1.16097 19.9075 0.904134C19.7793 0.882732 19.6725 0.861328 19.5657 0.861328C19.0744 0.861328 18.7113 1.07536 18.2413 1.54621C17.7714 2.01707 17.2587 2.74476 16.6606 3.47245L9.12012 12.5257V34.0996H28.6869C30.0967 34.0996 31.1007 32.9224 31.2502 31.2744L32.6173 15.7789C32.7455 14.3236 31.4425 13.1036 30.054 13.1036V13.1464Z" fill="black"/>
<path d="M3.82364 9.25195H3.22553C1.44412 9.25195 0 10.6989 0 12.4837V33.6295C0 35.4144 1.44412 36.8613 3.22553 36.8613H3.82364C5.60505 36.8613 7.04917 35.4144 7.04917 33.6295V12.4837C7.04917 10.6989 5.60505 9.25195 3.82364 9.25195Z" fill="black"/>
</svg>
