<svg width="65" height="65" viewBox="0 0 65 65" fill="none" xmlns="http://www.w3.org/2000/svg">
<g clip-path="url(#clip0_12132_7036)">
<mask id="mask0_12132_7036" style="mask-type:luminance" maskUnits="userSpaceOnUse" x="0" y="0" width="65" height="65">
<path d="M65 0H0V64.1447H65V0Z" fill="white"/>
</mask>
<g mask="url(#mask0_12132_7036)">
<path d="M47.5331 46.8052C47.5352 46.9507 47.5077 47.0951 47.4523 47.2298C47.3969 47.3646 47.3146 47.4871 47.2103 47.59C47.1061 47.6928 46.982 47.774 46.8454 47.8287C46.7088 47.8834 46.5625 47.9106 46.4151 47.9085H18.9279C18.6332 47.9045 18.3517 47.7868 18.1437 47.5806C17.9357 47.3744 17.8178 47.0961 17.8151 46.8052V11.2895C17.8123 11.1443 17.8391 11 17.894 10.8653C17.9489 10.7305 18.0306 10.608 18.1345 10.5051C18.2383 10.4021 18.3621 10.3208 18.4984 10.2661C18.6347 10.2113 18.7808 10.1842 18.9279 10.1862H36.3323V17.7656C36.3378 18.6903 36.7128 19.5755 37.3759 20.2289C38.0389 20.8822 38.9365 21.251 39.8735 21.2551H47.5331V28.7831L49.9563 26.3918V21.0395C49.958 20.5775 49.867 20.1197 49.6885 19.6925C49.51 19.2653 49.2476 18.8773 48.9163 18.5507L39.0987 8.81611C38.4211 8.1697 37.5191 7.80265 36.5767 7.78979H18.9279C17.9895 7.79519 17.0912 8.16581 16.4281 8.82112C15.7651 9.47642 15.3908 10.3635 15.3867 11.2895V46.8052C15.3949 47.7286 15.7709 48.6117 16.4336 49.2637C17.0962 49.9157 17.9922 50.2842 18.9279 50.2895H46.3683C47.3058 50.2869 48.2045 49.9196 48.8694 49.2673C49.5342 48.615 49.9117 47.7303 49.9199 46.8052V41.9507L47.4915 44.342V46.8052H47.5331Z" fill="white"/>
<path d="M46.3686 50.5564H18.9282C17.9204 50.555 16.9544 50.1594 16.2418 49.4562C15.5293 48.753 15.1283 47.7996 15.127 46.8052V11.2895C15.1283 10.2951 15.5293 9.34172 16.2418 8.63853C16.9544 7.93534 17.9204 7.53969 18.9282 7.53833H36.577C37.5822 7.54312 38.5477 7.92678 39.2758 8.61083L49.1246 18.3454C49.8341 19.0663 50.2266 20.0346 50.2166 21.0395V26.4995L47.2734 29.404V21.5116H39.8738C38.8665 21.5116 37.9004 21.1171 37.1877 20.4147C36.475 19.7124 36.0739 18.7596 36.0726 17.7656V10.4582H18.9126C18.8022 10.4582 18.6929 10.4797 18.591 10.5216C18.4891 10.5634 18.3965 10.6247 18.3187 10.702C18.2409 10.7793 18.1793 10.8709 18.1376 10.9718C18.0958 11.0726 18.0747 11.1806 18.0754 11.2895V46.8052C18.0767 47.0284 18.1668 47.2423 18.3263 47.4006C18.4858 47.559 18.7019 47.6492 18.9282 47.6519H46.4154C46.5989 47.656 46.7788 47.6005 46.9273 47.4939C47.0757 47.3873 47.1845 47.2354 47.237 47.0617V44.2394L50.1854 41.3298V46.8052C50.1847 47.2989 50.0854 47.7876 49.8931 48.2434C49.7009 48.6993 49.4195 49.1132 49.065 49.4616C48.7105 49.81 48.2899 50.086 47.8272 50.2739C47.3645 50.4617 46.8689 50.5577 46.3686 50.5564ZM18.9282 8.06688C18.061 8.06822 17.2296 8.40769 16.615 9.01132C16.0004 9.61495 15.6524 10.4338 15.647 11.2895V46.8052C15.6483 47.6635 15.9945 48.4863 16.6095 49.0933C17.2246 49.7003 18.0583 50.0418 18.9282 50.0432H46.3686C47.2384 50.0418 48.0722 49.7003 48.6872 49.0933C49.3022 48.4863 49.6484 47.6635 49.6498 46.8052V42.5921L47.7414 44.4703V46.5691L47.7934 46.8257C47.7954 47.0049 47.7612 47.1826 47.6927 47.3485C47.6242 47.5145 47.5228 47.6652 47.3944 47.7919C47.266 47.9186 47.1133 48.0186 46.9452 48.0863C46.777 48.1539 46.5969 48.1876 46.4154 48.1856H18.9282C18.5648 48.1802 18.218 48.0351 17.9616 47.7811C17.7051 47.5271 17.5594 47.1842 17.5554 46.8257V11.2895C17.5533 11.1108 17.5873 10.9335 17.6555 10.7679C17.7237 10.6023 17.8247 10.4518 17.9525 10.3252C18.0803 10.1986 18.2324 10.0984 18.4 10.0305C18.5675 9.96254 18.747 9.92827 18.9282 9.92965H36.6082V17.7656C36.6095 18.6235 36.9558 19.4457 37.571 20.0519C38.1862 20.658 39.02 20.9985 39.8894 20.9985H47.7934V28.1827L49.6966 26.3045V21.0395C49.7031 20.1775 49.3649 19.3477 48.7554 18.7303L38.9118 8.9957C38.2828 8.40232 37.4471 8.06984 36.577 8.06688H18.9282Z" fill="white"/>
<path d="M60.3566 26.9613L57.1638 23.8105C57.0752 23.7216 56.9696 23.651 56.8531 23.6028C56.7366 23.5546 56.6115 23.5298 56.4852 23.5298C56.3588 23.5298 56.2338 23.5546 56.1172 23.6028C56.0007 23.651 55.8951 23.7216 55.8066 23.8105L52.0678 27.4539H52.0938L42.1462 37.2912L41.179 38.2046C41.0538 38.3139 40.9756 38.4663 40.9606 38.6305V41.8993C40.9506 42.2149 41.0665 42.5218 41.2833 42.754C41.5001 42.9862 41.8006 43.1252 42.1202 43.1412L45.2402 43.1053C45.4024 43.0493 45.5499 42.9581 45.6718 42.8384L46.8886 41.6325L58.885 29.7632H58.8538L60.3202 28.3007C60.4191 28.2201 60.4996 28.1198 60.5565 28.0064C60.6133 27.893 60.6453 27.7689 60.6502 27.6425C60.6551 27.516 60.6329 27.39 60.5849 27.2726C60.537 27.1552 60.4645 27.0491 60.3722 26.9613" fill="#C1C1C1"/>
<path d="M29.4577 27.613H43.1285C43.1852 27.6137 43.2411 27.6254 43.2933 27.6474C43.3454 27.6694 43.3926 27.7014 43.4322 27.7414C43.4717 27.7814 43.503 27.8288 43.524 27.8807C43.5451 27.9326 43.5556 27.9882 43.5549 28.0441V29.9736C43.5556 30.0293 43.545 30.0845 43.5239 30.1362C43.5028 30.1878 43.4715 30.2348 43.4318 30.2744C43.3922 30.314 43.3449 30.3455 43.2929 30.367C43.2408 30.3884 43.1849 30.3995 43.1285 30.3995H29.4577C29.3441 30.3981 29.2357 30.3527 29.1558 30.2729C29.076 30.1932 29.0313 30.0856 29.0313 29.9736V28.0441C29.0306 27.9882 29.0411 27.9326 29.0621 27.8807C29.0832 27.8288 29.1144 27.7814 29.154 27.7414C29.1936 27.7014 29.2408 27.6694 29.2929 27.6474C29.345 27.6254 29.401 27.6137 29.4577 27.613Z" fill="#C1C1C1"/>
<path d="M29.4577 40.3752H36.6233C36.68 40.3759 36.7359 40.3876 36.7881 40.4096C36.8402 40.4316 36.8874 40.4636 36.927 40.5036C36.9665 40.5436 36.9978 40.591 37.0188 40.6429C37.0399 40.6948 37.0504 40.7504 37.0497 40.8063V42.7358C37.0497 42.8478 37.0049 42.9554 36.9251 43.0351C36.8453 43.1149 36.7368 43.1603 36.6233 43.1617H29.4577C29.3441 43.1603 29.2357 43.1149 29.1558 43.0351C29.076 42.9554 29.0313 42.8478 29.0313 42.7358V40.8063C29.0306 40.7504 29.0411 40.6948 29.0621 40.6429C29.0832 40.591 29.1144 40.5436 29.154 40.5036C29.1936 40.4636 29.2408 40.4316 29.2929 40.4096C29.345 40.3876 29.401 40.3759 29.4577 40.3752Z" fill="#C1C1C1"/>
<path d="M29.4577 34.0173H39.3377C39.3944 34.018 39.4504 34.0297 39.5025 34.0517C39.5546 34.0737 39.6018 34.1057 39.6414 34.1457C39.681 34.1857 39.7122 34.2331 39.7332 34.285C39.7543 34.3369 39.7648 34.3925 39.7641 34.4484V36.3779C39.7641 36.4899 39.7193 36.5975 39.6395 36.6772C39.5597 36.757 39.4512 36.8024 39.3377 36.8038H29.4577C29.3441 36.8024 29.2357 36.757 29.1558 36.6772C29.076 36.5975 29.0313 36.4899 29.0313 36.3779V34.4484C29.0306 34.3925 29.0411 34.3369 29.0621 34.285C29.0832 34.2331 29.1144 34.1857 29.154 34.1457C29.1936 34.1057 29.2408 34.0737 29.2929 34.0517C29.345 34.0297 29.401 34.018 29.4577 34.0173Z" fill="#C1C1C1"/>
<path d="M24.2376 31.6671C24.7626 31.6681 25.276 31.5153 25.713 31.2281C26.1499 30.941 26.4906 30.5323 26.692 30.0539C26.8933 29.5754 26.9463 29.0488 26.8441 28.5407C26.742 28.0325 26.4893 27.5657 26.1181 27.1994C25.7469 26.8331 25.2738 26.5837 24.7589 26.4829C24.244 26.3821 23.7103 26.4343 23.2255 26.6331C22.7407 26.8318 22.3266 27.168 22.0356 27.5992C21.7446 28.0303 21.5898 28.537 21.5908 29.0551C21.5908 29.7478 21.8697 30.4122 22.3661 30.902C22.8624 31.3919 23.5357 31.6671 24.2376 31.6671Z" fill="#C1C1C1"/>
<path d="M24.2376 38.025C24.7609 38.025 25.2724 37.8719 25.7076 37.5851C26.1427 37.2983 26.482 36.8907 26.6824 36.4137C26.8829 35.9368 26.9356 35.4118 26.8339 34.9053C26.7322 34.3988 26.4807 33.9334 26.111 33.5679C25.7414 33.2024 25.2703 32.9532 24.7572 32.8518C24.2441 32.7505 23.7121 32.8015 23.2283 32.9984C22.7446 33.1953 22.3309 33.5293 22.0394 33.9581C21.748 34.387 21.5918 34.8915 21.5908 35.4079C21.5908 36.1006 21.8697 36.765 22.366 37.2548C22.8624 37.7447 23.5356 38.0198 24.2376 38.0198" fill="#C1C1C1"/>
<path d="M24.2376 44.3831C24.7611 44.3831 25.2728 44.2299 25.7081 43.9429C26.1434 43.6559 26.4826 43.248 26.6829 42.7707C26.8833 42.2934 26.9357 41.7683 26.8336 41.2616C26.7314 40.7549 26.4794 40.2895 26.1092 39.9242C25.739 39.5589 25.2674 39.3102 24.754 39.2094C24.2406 39.1086 23.7084 39.1603 23.2247 39.358C22.7411 39.5557 22.3277 39.8905 22.0369 40.32C21.7461 40.7496 21.5908 41.2546 21.5908 41.7712C21.5908 42.1142 21.6593 42.4538 21.7923 42.7707C21.9253 43.0876 22.1203 43.3756 22.366 43.6181C22.6118 43.8606 22.9036 44.053 23.2247 44.1843C23.5459 44.3156 23.89 44.3831 24.2376 44.3831Z" fill="#C1C1C1"/>
<path d="M16.4425 53.3685C14.0089 53.3685 12.3709 50.9207 12.3709 48.6423V11.5872C12.3709 10.8123 11.9237 10.4634 11.4765 10.4634C11.0293 10.4634 10.6445 10.7559 10.6445 11.5872V48.6321C10.6445 51.3107 12.8545 55.0517 16.4425 55.0517H46.6909C47.5229 55.0517 47.8193 54.6257 47.8193 54.2306C47.8193 53.8355 47.4917 53.3582 46.7793 53.3582" fill="white"/>
</g>
</g>
<defs>
<clipPath id="clip0_12132_7036">
<rect width="65" height="64.1447" fill="white"/>
</clipPath>
</defs>
</svg>
