<svg width="67" height="67" viewBox="0 0 67 67" fill="none" xmlns="http://www.w3.org/2000/svg">
<g clip-path="url(#clip0_12132_7061)">
<path d="M33.69 59.2912C28.4686 59.2912 23.3645 57.7429 19.023 54.842C14.6815 51.9411 11.2978 47.818 9.29963 42.9941C7.30148 38.1701 6.77867 32.8619 7.79732 27.7408C8.81597 22.6197 11.3303 17.9157 15.0224 14.2236C18.7145 10.5315 23.4186 8.01714 28.5397 6.99849C33.6608 5.97984 38.9689 6.50265 43.7929 8.5008C48.6169 10.499 52.74 13.8827 55.6408 18.2242C58.5417 22.5656 60.09 27.6698 60.09 32.8912C60.0817 39.8904 57.2975 46.6004 52.3484 51.5496C47.3993 56.4987 40.6892 59.2828 33.69 59.2912ZM33.69 11.7712C29.5129 11.7712 25.4296 13.0099 21.9564 15.3306C18.4832 17.6513 15.7762 20.9498 14.1777 24.8089C12.5792 28.6681 12.1609 32.9146 12.9759 37.0115C13.7908 41.1084 15.8023 44.8716 18.756 47.8253C21.7096 50.779 25.4729 52.7905 29.5697 53.6054C33.6666 54.4203 37.9131 54.0021 41.7723 52.4036C45.6315 50.805 48.93 48.098 51.2507 44.6249C53.5714 41.1517 54.81 37.0684 54.81 32.8912C54.81 27.2898 52.5849 21.9179 48.6241 17.9571C44.6634 13.9964 39.2914 11.7712 33.69 11.7712Z" fill="white"/>
<path d="M33.6899 31.5714C35.6191 31.5672 37.4678 30.7975 38.83 29.4313C40.1922 28.0652 40.9566 26.2142 40.9552 24.285C40.952 22.8475 40.5228 21.4431 39.7218 20.2495C38.9208 19.0558 37.7839 18.1264 36.4548 17.5787C35.1256 17.031 33.664 16.8896 32.2546 17.1723C30.8451 17.4551 29.5511 18.1493 28.5361 19.1672C27.5211 20.1852 26.8306 21.4812 26.552 22.8915C26.2733 24.3017 26.419 25.763 26.9705 27.0905C27.5221 28.418 28.4548 29.5522 29.6508 30.3497C30.8468 31.1473 32.2524 31.5724 33.6899 31.5714Z" fill="#C1C1C1"/>
<path d="M46.4099 44.0321C45.5672 41.3371 43.8692 38.9902 41.5731 37.3467C39.277 35.7032 36.5079 34.8528 33.6851 34.9241C30.8621 34.8542 28.093 35.7052 25.7964 37.3484C23.4997 38.9915 21.8003 41.3376 20.9551 44.0321C20.1208 46.3975 20.6647 46.7196 20.7491 46.7882C20.8225 46.8554 20.9021 46.9155 20.9867 46.9677C24.6168 49.7906 29.0841 51.3231 33.6825 51.3231C38.2809 51.3231 42.7482 49.7906 46.3783 46.9677C46.4648 46.9183 46.5446 46.8579 46.6159 46.7882C47.3181 46.3975 46.4099 44.0321 46.4099 44.0321Z" fill="#C1C1C1"/>
</g>
<defs>
<clipPath id="clip0_12132_7061">
<rect width="66" height="66" fill="white" transform="translate(0.5 0.144775)"/>
</clipPath>
</defs>
</svg>
