<svg width="65" height="66" viewBox="0 0 65 66" fill="none" xmlns="http://www.w3.org/2000/svg">
<g clip-path="url(#clip0_12132_7053)">
<g clip-path="url(#clip1_12132_7053)">
<path d="M32.9682 20.3459C30.5664 20.3459 28.2184 21.0582 26.2214 22.3926C24.2243 23.727 22.6678 25.6236 21.7486 27.8426C20.8295 30.0617 20.589 32.5034 21.0576 34.8591C21.5261 37.2148 22.6827 39.3787 24.3811 41.0771C26.0795 42.7754 28.2433 43.932 30.599 44.4006C32.9548 44.8692 35.3965 44.6287 37.6155 43.7095C39.8346 42.7904 41.7312 41.2339 43.0656 39.2368C44.4 37.2397 45.1122 34.8918 45.1122 32.4899C45.1122 29.2692 43.8328 26.1803 41.5553 23.9028C39.2779 21.6254 36.189 20.3459 32.9682 20.3459ZM33.0316 40.1196C31.5362 40.1196 30.0743 39.6761 28.8309 38.8453C27.5875 38.0145 26.6184 36.8336 26.0462 35.452C25.4739 34.0705 25.3242 32.5502 25.6159 31.0835C25.9076 29.6168 26.6278 28.2696 27.6852 27.2122C28.7426 26.1548 30.0898 25.4347 31.5565 25.1429C33.0232 24.8512 34.5435 25.0009 35.925 25.5732C37.3066 26.1454 38.4875 27.1146 39.3183 28.3579C40.1491 29.6013 40.5925 31.0632 40.5925 32.5586C40.587 34.5622 39.7886 36.4821 38.3718 37.8988C36.9551 39.3156 35.0352 40.114 33.0316 40.1196Z" fill="#C1C1C1"/>
<path d="M52.6892 38.2294L59.4898 37.1047V28.0231L53.064 26.8879C51.9341 26.8879 51.1738 26.1329 50.7989 24.9977C50.5807 24.5069 50.5003 23.9659 50.5664 23.4329C50.6324 22.8999 50.8424 22.3949 51.1738 21.9722L54.9543 16.6922L48.9087 10.6308L43.6128 14.4007C42.8578 15.1558 41.7226 15.1558 40.5927 14.7809C39.4628 14.406 39.0773 13.6457 38.7024 12.5105L37.5672 6.08472H28.512L27.3768 12.5105C27.3768 13.6457 26.6218 14.4007 25.4866 14.7809C25.0604 14.9948 24.5789 15.0731 24.1069 15.0051C23.6349 14.9371 23.1951 14.7262 22.8466 14.4007L17.5666 10.6202L11.088 17.0407L14.8685 22.3207C15.6236 23.0758 15.6236 24.211 15.2487 25.3409C15.0527 25.7826 14.7352 26.1596 14.3333 26.4279C13.9313 26.6962 13.4614 26.8447 12.9783 26.8562L6.56836 28.0231V36.714L12.9941 37.8492C13.97 38.1563 14.7856 38.8354 15.2645 39.7394C15.4803 40.2311 15.5588 40.7719 15.4919 41.3046C15.425 41.8373 15.215 42.3419 14.8844 42.7649L11.1039 48.0449L17.1548 54.0958L22.4348 50.3153C23.1898 49.5602 24.325 49.5602 25.4602 49.9351C26.5954 50.31 26.9703 51.0703 27.3504 52.2055L28.512 59.0167H37.2029L38.3381 52.591C38.3381 51.4558 39.0932 50.7007 40.2284 50.3258C40.7191 50.1076 41.2601 50.0273 41.7931 50.0933C42.3261 50.1594 42.8311 50.3693 43.2538 50.7007L48.5338 54.4812L54.5847 48.4356L50.8042 43.1556C50.0492 42.4006 50.0492 41.2654 50.424 40.1354C50.7989 39.0055 51.554 38.6042 52.6892 38.2294ZM32.9684 47.6911C29.9627 47.6911 27.0245 46.7998 24.5255 45.1298C22.0264 43.4598 20.0787 41.0862 18.9287 38.3093C17.7787 35.5323 17.4781 32.4766 18.0649 29.5288C18.6517 26.5809 20.0994 23.8733 22.2251 21.7483C24.3508 19.6234 27.059 18.1765 30.007 17.5908C32.9551 17.005 36.0106 17.3067 38.7872 18.4577C41.5638 19.6086 43.9367 21.5571 45.6058 24.0568C47.2749 26.5564 48.1652 29.4949 48.1642 32.5006C48.1586 36.5285 46.5557 40.3899 43.7069 43.2376C40.8582 46.0853 36.9963 47.6869 32.9684 47.6911Z" fill="white"/>
<path d="M33.0316 28.5037C32.2296 28.5037 31.4456 28.7415 30.7787 29.1871C30.1119 29.6326 29.5921 30.2659 29.2852 31.0069C28.9783 31.7479 28.898 32.5632 29.0545 33.3498C29.2109 34.1364 29.5972 34.8589 30.1643 35.426C30.7314 35.9932 31.4539 36.3794 32.2405 36.5358C33.0271 36.6923 33.8424 36.612 34.5834 36.3051C35.3244 35.9982 35.9577 35.4784 36.4033 34.8116C36.8488 34.1447 37.0866 33.3607 37.0866 32.5587C37.0866 32.0262 36.9818 31.4989 36.778 31.0069C36.5742 30.5149 36.2755 30.0679 35.899 29.6914C35.5224 29.3148 35.0754 29.0161 34.5834 28.8123C34.0914 28.6085 33.5641 28.5037 33.0316 28.5037Z" fill="#C1C1C1"/>
</g>
</g>
<defs>
<clipPath id="clip0_12132_7053">
<rect width="65" height="65" fill="white" transform="translate(0 0.144775)"/>
</clipPath>
<clipPath id="clip1_12132_7053">
<rect width="66" height="66" fill="white" transform="translate(0 0.144775)"/>
</clipPath>
</defs>
</svg>
