<svg width="65" height="65" viewBox="0 0 65 65" fill="none" xmlns="http://www.w3.org/2000/svg">
<g clip-path="url(#clip0_12132_7013)">
<path d="M44.9594 24.5858L33.8782 36.8526C34.0728 37.1999 34.1745 37.5917 34.1734 37.9898C34.1723 38.388 34.0685 38.7792 33.872 39.1255C33.6755 39.4718 33.3929 39.7615 33.0517 39.9667C32.7104 40.1718 32.322 40.2855 31.924 40.2966C31.526 40.3077 31.1318 40.2159 30.7797 40.0301C30.4275 39.8443 30.1292 39.5708 29.9137 39.236C29.6982 38.9012 29.5727 38.5164 29.5494 38.1189C29.5261 37.7214 29.6057 37.3247 29.7806 36.967L23.3066 30.8154L24.0502 30.0354L30.467 36.135C30.8499 35.8451 31.3136 35.6818 31.7936 35.6678C32.2736 35.6538 32.746 35.7899 33.145 36.057L44.1638 23.8682L44.9594 24.5858Z" fill="#C1C1C1"/>
<path d="M31.8604 41.3814C31.354 41.3831 30.8537 41.2714 30.396 41.0546C29.9383 40.8379 29.5349 40.5215 29.2153 40.1286C28.8958 39.7357 28.6681 39.2764 28.5491 38.7842C28.43 38.2919 28.4225 37.7793 28.5272 37.2838L22.5524 31.6054C22.4463 31.5062 22.361 31.3868 22.3015 31.2541C22.2421 31.1215 22.2097 30.9784 22.2064 30.8331C22.203 30.6878 22.2286 30.5433 22.2818 30.408C22.335 30.2728 22.4146 30.1495 22.516 30.0454L23.2596 29.2654C23.3589 29.1592 23.4783 29.0739 23.6109 29.0145C23.7435 28.9551 23.8867 28.9227 24.032 28.9193C24.1773 28.916 24.3218 28.9416 24.457 28.9948C24.5923 29.048 24.7156 29.1276 24.8196 29.229L30.6436 34.7982C31.3587 34.5266 32.1442 34.5028 32.8744 34.7306L43.3576 23.1346C43.4536 23.025 43.5707 22.9358 43.7018 22.8723C43.833 22.8088 43.9756 22.7723 44.1211 22.765C44.2666 22.7578 44.4122 22.7798 44.549 22.8299C44.6858 22.88 44.8112 22.9571 44.9176 23.0566L45.7132 23.7742C45.8223 23.8706 45.9109 23.9878 45.974 24.1189C46.0371 24.2501 46.0733 24.3925 46.0806 24.5378C46.0879 24.6831 46.066 24.8285 46.0163 24.9652C45.9666 25.102 45.8901 25.2275 45.7912 25.3342L35.1416 37.081C35.2213 37.3672 35.2615 37.6628 35.2612 37.9598C35.264 38.4082 35.178 38.8526 35.0084 39.2676C34.8387 39.6827 34.5886 40.06 34.2726 40.378C33.9565 40.696 33.5807 40.9484 33.1667 41.1206C32.7527 41.2928 32.3088 41.3814 31.8604 41.3814ZM30.8568 37.1538C30.8359 37.2539 30.8045 37.3515 30.7632 37.445C30.6828 37.6067 30.6401 37.7845 30.6384 37.965C30.6587 38.2747 30.7959 38.565 31.0224 38.7772C31.2489 38.9893 31.5475 39.1074 31.8578 39.1074C32.1681 39.1074 32.4668 38.9893 32.6933 38.7772C32.9197 38.565 33.057 38.2747 33.0772 37.965C33.078 37.7562 33.0262 37.5505 32.9264 37.367C32.8755 37.2773 32.837 37.1811 32.812 37.081C32.714 37.0498 32.6211 37.0043 32.5364 36.9458C32.3358 36.8135 32.1008 36.743 31.8604 36.743C31.5935 36.7426 31.334 36.8304 31.122 36.9926C31.0417 37.0586 30.9524 37.1129 30.8568 37.1538Z" fill="#C1C1C1"/>
<path d="M32.4998 6.50001C29.5352 6.49713 26.5922 7.00551 23.8002 8.00281C23.977 8.15881 24.159 8.31481 24.3202 8.48121C25.3636 9.5232 26.1922 10.7599 26.759 12.1212C26.8058 12.2356 26.8422 12.3604 26.8838 12.48C31.3123 11.2364 36.0281 11.4959 40.2935 13.2177C44.5588 14.9396 48.1331 18.0267 50.4571 21.9962C52.7812 25.9657 53.7239 30.5936 53.1377 35.1559C52.5516 39.7181 50.4697 43.9575 47.2178 47.2106C43.9658 50.4637 39.7273 52.5471 35.1652 53.1349C30.6031 53.7227 25.9749 52.7816 22.0046 50.459C18.0342 48.1364 14.9458 44.5633 13.2224 40.2986C11.499 36.0338 11.2379 31.3181 12.4798 26.8892C12.3602 26.8476 12.2354 26.8112 12.121 26.7644C10.7598 26.1976 9.52304 25.369 8.48105 24.3256C8.31465 24.1592 8.15865 23.9772 8.00265 23.8056C6.15653 29.0085 6.01444 34.6639 7.59695 39.9529C9.17947 45.242 12.4044 49.89 16.8048 53.2238C21.2052 56.5577 26.5526 58.4044 32.0725 58.4964C37.5924 58.5884 42.9983 56.921 47.5074 53.7357C52.0165 50.5503 55.3946 46.0124 57.1525 40.7791C58.9104 35.5457 58.9569 29.8887 57.2853 24.6272C55.6136 19.3657 52.3105 14.7728 47.8544 11.5138C43.3983 8.25476 38.0205 6.49874 32.4998 6.50001Z" fill="white"/>
<path d="M16.406 28.1267C13.6949 28.1226 11.0689 27.1797 8.97451 25.4582C6.88012 23.7367 5.44663 21.3429 4.91777 18.6839C4.38891 16.0249 4.79734 13.2648 6.0736 10.873C7.34986 8.48108 9.41517 6.60506 11.9184 5.5639C14.7947 4.38886 18.0172 4.38886 20.8936 5.5639C22.3164 6.15389 23.6084 7.01989 24.6948 8.1119C26.3387 9.74984 27.4591 11.8391 27.914 14.1147C28.3688 16.3903 28.1377 18.7497 27.2498 20.8937C26.3618 23.0378 24.8572 24.8698 22.9266 26.1575C20.9961 27.4452 18.7266 28.1306 16.406 28.1267ZM16.406 5.7199C14.2895 5.71158 12.2183 6.33288 10.4559 7.50478C8.69342 8.67669 7.31929 10.3463 6.50822 12.3012C5.69715 14.2561 5.48577 16.4081 5.90098 18.4835C6.31618 20.5589 7.3392 22.4639 8.83996 23.9563C9.82819 24.9538 11.0056 25.7441 12.3032 26.2807C14.9245 27.352 17.8615 27.352 20.4828 26.2807C22.1118 25.6127 23.5503 24.5519 24.6699 23.193C25.7895 21.834 26.5553 20.2191 26.8993 18.4923C27.2432 16.7655 27.1545 14.9804 26.641 13.2962C26.1275 11.612 25.2052 10.0811 23.9564 8.8399C22.9674 7.84544 21.7906 7.0575 20.4944 6.52188C19.1982 5.98626 17.8085 5.71365 16.406 5.7199Z" fill="white"/>
<path d="M17.8468 9.96818H14.9608C14.8338 9.96744 14.708 9.9924 14.5909 10.0416C14.4738 10.0907 14.3679 10.163 14.2796 10.2542C14.0617 10.4753 13.9291 10.7663 13.9052 11.0758L13.8584 11.4866H18.9544L18.9076 11.0758C18.879 10.7675 18.747 10.478 18.5332 10.2542C18.4438 10.1629 18.337 10.0905 18.219 10.0414C18.1011 9.99223 17.9745 9.96734 17.8468 9.96818ZM14.9608 9.00618H17.8468C18.1007 9.0047 18.3523 9.05462 18.5864 9.15292C18.8206 9.25122 19.0324 9.39588 19.2092 9.57818C19.5773 9.95368 19.8065 10.4434 19.8592 10.9666L19.9164 11.4866H21.9236C22.3328 11.4865 22.7257 11.6473 23.0175 11.9343C23.3094 12.2212 23.4767 12.6114 23.4836 13.0206V15.3034H9.36035V12.9998C9.36704 12.595 9.53081 12.2087 9.81705 11.9225C10.1033 11.6362 10.4896 11.4725 10.8944 11.4658H12.9016L12.964 10.9458C13.0147 10.4231 13.2422 9.93339 13.6088 9.55738C13.7855 9.37508 13.9973 9.23042 14.2315 9.13212C14.4656 9.03382 14.7172 8.9839 14.9712 8.98538L14.9608 9.00618ZM10.884 22.053H21.9236C22.3328 22.053 22.7257 21.8923 23.0175 21.6053C23.3094 21.3183 23.4767 20.9282 23.4836 20.519V16.2602H16.9576V16.671C16.965 16.7482 16.9563 16.8262 16.9319 16.8998C16.9075 16.9735 16.8679 17.0412 16.8157 17.0987C16.7636 17.1561 16.7 17.202 16.629 17.2335C16.5581 17.2649 16.4813 17.2811 16.4038 17.2811C16.3262 17.2811 16.2494 17.2649 16.1785 17.2335C16.1075 17.202 16.0439 17.1561 15.9918 17.0987C15.9396 17.0412 15.9 16.9735 15.8756 16.8998C15.8512 16.8262 15.8425 16.7482 15.85 16.671V16.2602H9.36035V20.519C9.36696 20.922 9.52928 21.3068 9.81331 21.5927C10.0973 21.8787 10.481 22.0436 10.884 22.053Z" fill="#C1C1C1"/>
</g>
<defs>
<clipPath id="clip0_12132_7013">
<rect width="65" height="65" fill="white"/>
</clipPath>
</defs>
</svg>
