<svg width="137" height="157" viewBox="0 0 137 157"  xmlns="http://www.w3.org/2000/svg">
<g filter="url(#filter0_d_808_266)">
<path fill-rule="evenodd" clip-rule="evenodd" d="M121.971 20.2287C121.884 11.885 115.263 5.08752 107.132 5.08752H75.3321V5H69.5239V5.08752H0C0.000481723 20.2579 0.000481844 11.9142 0.000481844 20.2579V91.1501C0.000481844 99.4938 0.000726223 97.5 0.000571489 106.291H30.6675C30.6675 106.291 32.3228 106.962 32.3228 107.721V139.783C32.3228 140.979 33.223 142 34.3556 142C35.4882 142 36.6498 140.95 37.6082 139.783L64.6161 107.342C64.9355 106.671 65.5744 106.262 66.2714 106.262H107.248C115.379 106.262 122 99.4647 122 91.121V20.2287H121.971Z"/>
</g>
<defs>
<filter id="filter0_d_808_266" x="-5" y="0" width="142" height="157" filterUnits="userSpaceOnUse" color-interpolation-filters="sRGB">
<feFlood flood-opacity="0" result="BackgroundImageFix"/>
<feColorMatrix in="SourceAlpha" type="matrix" values="0 0 0 0 0 0 0 0 0 0 0 0 0 0 0 0 0 0 127 0" result="hardAlpha"/>
<feOffset dx="5" dy="5"/>
<feGaussianBlur stdDeviation="5"/>
<feComposite in2="hardAlpha" operator="out"/>
<feColorMatrix type="matrix" values="0 0 0 0 0 0 0 0 0 0 0 0 0 0 0 0 0 0 0.2 0"/>
<feBlend mode="normal" in2="BackgroundImageFix" result="effect1_dropShadow_808_266"/>
<feBlend mode="normal" in="SourceGraphic" in2="effect1_dropShadow_808_266" result="shape"/>
</filter>
</defs>
</svg>
