<svg width="33" height="37" viewBox="0 0 33 37" fill="none" xmlns="http://www.w3.org/2000/svg">
<path fill-rule="evenodd" clip-rule="evenodd" d="M30.3987 12.428H21.1733C21.1733 12.428 21.0221 12.428 20.9572 12.4063C20.4603 12.2764 20.1362 11.7784 20.2659 11.2588L22.2752 3.11782C22.6208 1.71047 21.5838 0.303122 20.1362 0.043304C20.0066 0.0216525 19.8986 0 19.7906 0C19.2936 0 18.9263 0.216519 18.451 0.692852C17.9757 1.16919 17.4572 1.90534 16.8522 2.64149L9.22559 11.8001V33.6248H29.016C30.4419 33.6248 31.4574 32.434 31.6086 30.7668L32.9914 15.0911C33.121 13.6188 31.8031 12.3847 30.3987 12.3847V12.428Z"/>
<path d="M3.86734 8.48633H3.2624C1.46062 8.48633 0 9.95008 0 11.7557V33.1474C0 34.9531 1.46062 36.4168 3.2624 36.4168H3.86734C5.66911 36.4168 7.12974 34.9531 7.12974 33.1474V11.7557C7.12974 9.95008 5.66911 8.48633 3.86734 8.48633Z" />
</svg>
