<svg width="36" height="37" viewBox="0 0 36 37" fill="none" xmlns="http://www.w3.org/2000/svg">
<path d="M21.6316 0.874023C21.717 0.881384 21.7898 0.89145 21.8455 0.899414L22.0574 0.932617L22.074 0.935547L22.0886 0.9375C24.5732 1.38336 26.6395 3.86184 25.9451 6.68848L25.9441 6.69141L24.7839 11.3916H27.7605V11.3545H30.3318C32.8231 11.3546 35.35 13.4944 35.0906 16.4443L33.9187 29.7275L33.9177 29.7334C33.7148 31.9699 32.1479 34.4937 29.1609 34.4941H11.0095C10.0524 35.9208 8.42605 36.8613 6.5769 36.8613H6.06519C3.11363 36.8613 0.728642 34.4655 0.728271 31.5205V13.3945C0.728454 10.4493 3.11351 8.05371 6.06519 8.05371H6.5769C8.5829 8.05371 10.3264 9.16035 11.238 10.7939L16.865 4.03809C17.1003 3.75184 17.293 3.49765 17.5515 3.16992C17.7778 2.88301 18.0693 2.52098 18.3865 2.20312C18.9903 1.59818 19.9227 0.861496 21.3416 0.861328L21.6316 0.874023ZM6.06519 10.625C4.53837 10.625 3.29974 11.8648 3.29956 13.3945V31.5205L3.31421 31.8027C3.44622 33.1066 4.48069 34.144 5.78198 34.2764L6.06519 34.29H6.5769C8.0085 34.29 9.18644 33.1997 9.32788 31.8027L9.34155 31.5205V13.3945C9.34137 11.8648 8.10371 10.625 6.5769 10.625H6.06519ZM21.3416 3.43262C20.9207 3.43276 20.6094 3.61707 20.2068 4.02051C19.8041 4.42411 19.3648 5.04829 18.8523 5.67188L12.3884 13.4307V31.9229H29.1609C30.3689 31.9224 31.2281 30.9132 31.3562 29.501L32.5291 16.2197C32.6389 14.9723 31.5218 13.9259 30.3318 13.9258V13.9629H22.5134C22.5073 13.9629 22.3834 13.9622 22.3298 13.9443C21.9092 13.834 21.6353 13.4125 21.7449 12.9727L23.448 6.07422C23.7407 4.8819 22.8611 3.68887 21.6345 3.46875C21.5249 3.45044 21.4329 3.43264 21.3416 3.43262Z" fill="black"/>
</svg>
