<svg width="36" height="36" viewBox="0 0 36 36" fill="none" xmlns="http://www.w3.org/2000/svg">
<path fill-rule="evenodd" clip-rule="evenodd" d="M25.37 33.39L24.93 33.32C24.65 33.32 18.13 32.17 10.87 25.8C3.61 19.43 2.14 12.7 2.09 12.39L2 11.97L2.26 11.62C2.26 11.62 4.54 8.61999 7.43 4.98999L8.22 3.98999L14.38 12.67L12.29 15.86C13.2118 17.5336 14.3779 19.0604 15.75 20.39C17.2769 21.6063 18.9582 22.6151 20.75 23.39L23.75 21.05L32.88 26.53L31.93 27.39C28.55 30.55 25.74 33.04 25.71 33.06L25.37 33.39ZM4.06 12.44C5.57786 17.1004 8.37401 21.241 12.13 24.39C15.7334 27.7021 20.0781 30.1024 24.8 31.39C25.56 30.72 27.44 29.03 29.7 26.94L23.88 23.39L21.02 25.62L20.5 25.39C18.3462 24.4927 16.327 23.3013 14.5 21.85C12.8239 20.2121 11.4136 18.3227 10.32 16.25L10.06 15.76L12.06 12.76L8.12 7.17999C6.2 9.61999 4.66 11.64 4.06 12.44Z" fill="black"/>
</svg>
