<svg width="37" height="40" viewBox="0 0 37 40" fill="none" xmlns="http://www.w3.org/2000/svg">
<path fill-rule="evenodd" clip-rule="evenodd" d="M29.5882 35.3346C27.328 35.3346 25.4887 33.4952 25.4887 31.235C25.4887 28.9747 27.328 27.1354 29.5882 27.1354C31.8485 27.1354 33.6878 28.9747 33.6878 31.235C33.6878 33.4952 31.8485 35.3346 29.5882 35.3346ZM7.72376 24.4023C5.46352 24.4023 3.62417 22.563 3.62417 20.3027C3.62417 18.0425 5.46352 16.2031 7.72376 16.2031C9.984 16.2031 11.8234 18.0425 11.8234 20.3027C11.8234 22.563 9.984 24.4023 7.72376 24.4023ZM29.5882 5.2709C31.8485 5.2709 33.6878 7.11025 33.6878 9.37049C33.6878 11.6307 31.8485 13.4701 29.5882 13.4701C27.328 13.4701 25.4887 11.6307 25.4887 9.37049C25.4887 7.11025 27.328 5.2709 29.5882 5.2709ZM29.5882 24.4023C27.4127 24.4023 25.4928 25.4436 24.241 27.0329L14.2981 22.0615C14.4498 21.4971 14.5564 20.9149 14.5564 20.3027C14.5564 19.6905 14.4498 19.1084 14.2981 18.544L24.241 13.5726C25.4928 15.1618 27.4127 16.2031 29.5882 16.2031C33.3558 16.2031 36.4209 13.138 36.4209 9.37049C36.4209 5.60297 33.3558 2.53784 29.5882 2.53784C25.8207 2.53784 22.7556 5.60297 22.7556 9.37049C22.7556 9.9827 22.8622 10.5648 23.0139 11.1292L13.071 16.1007C11.8193 14.5114 9.89928 13.4701 7.72376 13.4701C3.95624 13.4701 0.891113 16.5352 0.891113 20.3027C0.891113 24.0703 3.95624 27.1354 7.72376 27.1354C9.89928 27.1354 11.8193 26.0941 13.071 24.5048L23.0139 29.4762C22.8622 30.0406 22.7556 30.6228 22.7556 31.235C22.7556 35.0025 25.8207 38.0676 29.5882 38.0676C33.3558 38.0676 36.4209 35.0025 36.4209 31.235C36.4209 27.4675 33.3558 24.4023 29.5882 24.4023Z" fill="black"/>
</svg>
