<svg width="65" height="65" viewBox="0 0 65 65" fill="none" xmlns="http://www.w3.org/2000/svg">
<mask id="mask0_12132_7023" style="mask-type:luminance" maskUnits="userSpaceOnUse" x="0" y="0" width="65" height="65">
<path d="M65 0H0V65H65V0Z" fill="white"/>
</mask>
<g mask="url(#mask0_12132_7023)">
<path d="M23.2122 28.2566L26.743 25.6566C26.9459 25.5128 27.0853 25.296 27.1318 25.0517C27.1783 24.8074 27.1284 24.5545 26.9926 24.3462L21.9486 15.9378C21.6512 15.4765 21.187 15.148 20.653 15.0211C20.119 14.8941 19.5566 14.9785 19.0834 15.2566L12.6198 18.8498C11.7938 19.2722 11.1462 19.9763 10.7943 20.8347C10.4423 21.6931 10.4092 22.6491 10.701 23.5298C11.4082 25.667 12.1674 27.6898 12.9734 29.697C14.6446 33.7979 16.6336 37.7619 18.9222 41.553C21.2234 45.3607 23.8027 48.9933 26.639 52.421C28.0534 54.1214 29.5146 55.7698 31.0798 57.4234C31.7463 58.0989 32.6167 58.5362 33.5565 58.6678C34.4964 58.7994 35.4534 58.6179 36.2798 58.1514L42.733 54.5582C42.9721 54.4335 43.183 54.2607 43.3523 54.0508C43.5216 53.8408 43.6458 53.5981 43.7171 53.338C43.7883 53.0779 43.8051 52.8058 43.7664 52.5389C43.7277 52.2719 43.6344 52.0158 43.4922 51.7866L38.4482 43.3834C38.3211 43.1628 38.1175 42.9966 37.876 42.9161C37.6345 42.8356 37.3718 42.8464 37.1378 42.9466L33.0506 44.595C32.6125 44.7714 32.1289 44.8004 31.673 44.6775C31.217 44.5546 30.8134 44.2865 30.5234 43.9138C28.9515 41.8648 27.5033 39.7238 26.1866 37.5022C24.875 35.2988 23.6791 33.0285 22.6038 30.7006C22.404 30.2863 22.3555 29.8151 22.4666 29.3688C22.5778 28.9224 22.8415 28.529 23.2122 28.2566Z" fill="white"/>
<path d="M38.5006 11.9023H54.059C54.1758 11.9051 54.2869 11.9534 54.3685 12.0369C54.4501 12.1205 54.4958 12.2327 54.4958 12.3495V14.3671C54.4958 14.484 54.4501 14.5962 54.3685 14.6797C54.2869 14.7633 54.1758 14.8116 54.059 14.8143H38.5006C38.3829 14.813 38.2705 14.7653 38.1877 14.6815C38.105 14.5978 38.0586 14.4849 38.0586 14.3671V12.3495C38.0586 12.2318 38.105 12.1189 38.1877 12.0352C38.2705 11.9514 38.3829 11.9037 38.5006 11.9023Z" fill="#C1C1C1"/>
<path d="M38.5006 25.23H54.059C54.1171 25.2307 54.1744 25.2428 54.2278 25.2657C54.2811 25.2885 54.3295 25.3216 54.3701 25.3632C54.4106 25.4047 54.4426 25.4538 54.4642 25.5077C54.4858 25.5616 54.4965 25.6192 54.4958 25.6772V27.6948C54.4958 27.8112 54.45 27.9228 54.3682 28.0055C54.2864 28.0883 54.1754 28.1355 54.059 28.1368H38.5006C38.3834 28.1368 38.271 28.0903 38.1881 28.0074C38.1052 27.9245 38.0586 27.8121 38.0586 27.6948V25.6564C38.0579 25.5979 38.0689 25.5399 38.0908 25.4857C38.1127 25.4315 38.1451 25.3821 38.1862 25.3405C38.2273 25.2989 38.2763 25.2659 38.3303 25.2434C38.3842 25.2208 38.4421 25.2092 38.5006 25.2092" fill="#C1C1C1"/>
<path d="M38.5006 18.5898H54.059C54.1758 18.5926 54.2869 18.6409 54.3685 18.7244C54.4501 18.808 54.4958 18.9202 54.4958 19.037V21.0546C54.4958 21.1715 54.4501 21.2837 54.3685 21.3672C54.2869 21.4508 54.1758 21.4991 54.059 21.5018H38.5006C38.3829 21.5005 38.2705 21.4528 38.1877 21.369C38.105 21.2853 38.0586 21.1724 38.0586 21.0546V19.037C38.0586 18.9193 38.105 18.8064 38.1877 18.7226C38.2705 18.6389 38.3829 18.5912 38.5006 18.5898Z" fill="#C1C1C1"/>
<path d="M33.1236 16.1353C33.6635 16.1353 34.1913 15.9752 34.6403 15.6752C35.0892 15.3752 35.4391 14.9489 35.6457 14.45C35.8524 13.9512 35.9064 13.4023 35.8011 12.8727C35.6958 12.3431 35.4358 11.8567 35.054 11.4749C34.6722 11.0931 34.1857 10.8331 33.6562 10.7278C33.1266 10.6224 32.5777 10.6765 32.0788 10.8831C31.58 11.0897 31.1536 11.4396 30.8536 11.8886C30.5537 12.3375 30.3936 12.8654 30.3936 13.4053C30.3936 14.1293 30.6812 14.8237 31.1932 15.3357C31.7051 15.8477 32.3995 16.1353 33.1236 16.1353Z" fill="#C1C1C1"/>
<path d="M33.1236 22.7759C33.6635 22.7759 34.1913 22.6158 34.6403 22.3158C35.0892 22.0159 35.4391 21.5895 35.6457 21.0906C35.8524 20.5918 35.9064 20.0429 35.8011 19.5133C35.6958 18.9838 35.4358 18.4973 35.054 18.1155C34.6722 17.7337 34.1857 17.4737 33.6562 17.3684C33.1266 17.263 32.5777 17.3171 32.0788 17.5237C31.58 17.7304 31.1536 18.0803 30.8536 18.5292C30.5537 18.9782 30.3936 19.506 30.3936 20.0459C30.3936 20.77 30.6812 21.4643 31.1932 21.9763C31.7051 22.4883 32.3995 22.7759 33.1236 22.7759Z" fill="#C1C1C1"/>
<path d="M33.1229 29.4109C33.6633 29.4099 34.1912 29.2485 34.6398 28.9472C35.0884 28.6459 35.4375 28.2183 35.6429 27.7184C35.8482 27.2186 35.9006 26.669 35.7934 26.1394C35.6862 25.6097 35.4243 25.1238 35.0407 24.7432C34.6571 24.3625 34.1692 24.1043 33.6388 24.0011C33.1084 23.898 32.5592 23.9546 32.061 24.1637C31.5627 24.3729 31.1377 24.7253 30.8399 25.1761C30.542 25.627 30.3847 26.1561 30.3877 26.6965C30.3919 27.4188 30.682 28.1099 31.1947 28.6187C31.7073 29.1274 32.4007 29.4123 33.1229 29.4109Z" fill="#C1C1C1"/>
</g>
</svg>
