<svg width="45" height="49" viewBox="0 0 45 49" fill="none" xmlns="http://www.w3.org/2000/svg">
<path d="M13.5686 17.9202L17.0994 15.3202C17.3024 15.1764 17.4417 14.9596 17.4882 14.7153C17.5348 14.471 17.4849 14.2181 17.349 14.0098L12.305 5.6014C12.0076 5.14007 11.5434 4.81159 11.0094 4.68463C10.4754 4.55768 9.91302 4.64208 9.43983 4.9202L2.97623 8.5134C2.15021 8.93579 1.50265 9.63988 1.1507 10.4983C0.798758 11.3567 0.76567 12.3127 1.05743 13.1934C1.76463 15.3306 2.52383 17.3534 3.32983 19.3606C5.00105 23.4615 6.99003 27.4255 9.27863 31.2166C11.5798 35.0243 14.1591 38.6568 16.9954 42.0846C18.4098 43.785 19.871 45.4334 21.4362 47.087C22.1028 47.7625 22.9732 48.1998 23.913 48.3314C24.8528 48.4629 25.8098 48.2815 26.6362 47.815L33.0894 44.2218C33.3286 44.097 33.5394 43.9243 33.7087 43.7143C33.8781 43.5044 34.0022 43.2617 34.0735 43.0016C34.1448 42.7414 34.1616 42.4694 34.1229 42.2024C34.0842 41.9355 33.9908 41.6794 33.8486 41.4502L28.8046 33.047C28.6775 32.8264 28.4739 32.6601 28.2324 32.5796C27.9909 32.4991 27.7283 32.51 27.4942 32.6102L23.407 34.2586C22.969 34.435 22.4854 34.4639 22.0294 34.341C21.5734 34.2181 21.1699 33.9501 20.8798 33.5774C19.3079 31.5284 17.8597 29.3874 16.543 27.1658C15.2315 24.9623 14.0356 22.6921 12.9602 20.3642C12.7605 19.9498 12.712 19.4787 12.8231 19.0323C12.9342 18.586 13.1979 18.1925 13.5686 17.9202Z" fill="white"/>
<path d="M28.857 1.56592H44.4154C44.5322 1.56863 44.6433 1.61695 44.725 1.70052C44.8066 1.78409 44.8523 1.89629 44.8522 2.01312V4.03072C44.8523 4.14754 44.8066 4.25974 44.725 4.34332C44.6433 4.42689 44.5322 4.4752 44.4154 4.47792H28.857C28.7393 4.47655 28.6269 4.42883 28.5442 4.34511C28.4614 4.26139 28.415 4.14843 28.415 4.03072V2.01312C28.415 1.89541 28.4614 1.78244 28.5442 1.69872C28.6269 1.61501 28.7393 1.56729 28.857 1.56592Z" fill="#C1C1C1"/>
<path d="M28.8571 14.8936H44.4155C44.4735 14.8943 44.5309 14.9064 44.5842 14.9292C44.6376 14.9521 44.6859 14.9852 44.7265 15.0267C44.7671 15.0683 44.799 15.1174 44.8206 15.1713C44.8422 15.2251 44.853 15.2828 44.8523 15.3408V17.3584C44.8523 17.4747 44.8064 17.5864 44.7247 17.6691C44.6429 17.7519 44.5318 17.799 44.4155 17.8004H28.8571C28.7398 17.8004 28.6274 17.7538 28.5445 17.6709C28.4616 17.5881 28.4151 17.4756 28.4151 17.3584V15.32C28.4144 15.2615 28.4253 15.2035 28.4472 15.1493C28.4691 15.095 28.5016 15.0457 28.5427 15.0041C28.5838 14.9625 28.6327 14.9295 28.6867 14.9069C28.7407 14.8844 28.7986 14.8728 28.8571 14.8728" fill="#C1C1C1"/>
<path d="M28.857 8.25342H44.4154C44.5322 8.25613 44.6433 8.30445 44.725 8.38802C44.8066 8.47159 44.8523 8.58379 44.8522 8.70062V10.7182C44.8523 10.835 44.8066 10.9472 44.725 11.0308C44.6433 11.1144 44.5322 11.1627 44.4154 11.1654H28.857C28.7393 11.164 28.6269 11.1163 28.5442 11.0326C28.4614 10.9489 28.415 10.8359 28.415 10.7182V8.70062C28.415 8.58291 28.4614 8.46994 28.5442 8.38622C28.6269 8.30251 28.7393 8.25479 28.857 8.25342Z" fill="#C1C1C1"/>
<path d="M23.48 5.79887C24.0199 5.79887 24.5478 5.63876 24.9967 5.33878C25.4457 5.0388 25.7956 4.61244 26.0022 4.11359C26.2088 3.61475 26.2629 3.06584 26.1575 2.53627C26.0522 2.0067 25.7922 1.52026 25.4104 1.13847C25.0286 0.75667 24.5422 0.496662 24.0126 0.391325C23.483 0.285987 22.9341 0.34005 22.4353 0.546677C21.9364 0.753304 21.5101 1.10322 21.2101 1.55216C20.9101 2.00111 20.75 2.52893 20.75 3.06887C20.75 3.79291 21.0376 4.4873 21.5496 4.99927C22.0616 5.51124 22.756 5.79887 23.48 5.79887Z" fill="#C1C1C1"/>
<path d="M23.48 12.4395C24.0199 12.4395 24.5478 12.2794 24.9967 11.9794C25.4457 11.6794 25.7956 11.2531 26.0022 10.7542C26.2088 10.2554 26.2629 9.70647 26.1575 9.1769C26.0522 8.64733 25.7922 8.16089 25.4104 7.77909C25.0286 7.3973 24.5422 7.13729 24.0126 7.03195C23.483 6.92661 22.9341 6.98068 22.4353 7.1873C21.9364 7.39393 21.5101 7.74384 21.2101 8.19279C20.9101 8.64173 20.75 9.16955 20.75 9.70949C20.75 10.4335 21.0376 11.1279 21.5496 11.6399C22.0616 12.1519 22.756 12.4395 23.48 12.4395Z" fill="#C1C1C1"/>
<path d="M23.4794 19.0743C24.0198 19.0732 24.5477 18.9118 24.9963 18.6105C25.4449 18.3092 25.794 17.8816 25.9993 17.3817C26.2047 16.8819 26.2571 16.3324 26.1499 15.8027C26.0427 15.2731 25.7807 14.7872 25.3972 14.4065C25.0136 14.0259 24.5257 13.7676 23.9952 13.6645C23.4648 13.5613 22.9157 13.6179 22.4174 13.8271C21.9192 14.0362 21.4942 14.3886 21.1963 14.8395C20.8985 15.2903 20.7411 15.8195 20.7442 16.3599C20.7483 17.0821 21.0385 17.7733 21.5511 18.282C22.0638 18.7908 22.7571 19.0756 23.4794 19.0743Z" fill="#C1C1C1"/>
</svg>
